<?xml version="1.0" encoding="UTF-8" standalone="no"?>
<svg
   xmlns:dc="http://purl.org/dc/elements/1.1/"
   xmlns:cc="http://creativecommons.org/ns#"
   xmlns:rdf="http://www.w3.org/1999/02/22-rdf-syntax-ns#"
   xmlns:svg="http://www.w3.org/2000/svg"
   xmlns="http://www.w3.org/2000/svg"
   xmlns:sodipodi="http://sodipodi.sourceforge.net/DTD/sodipodi-0.dtd"
   xmlns:inkscape="http://www.inkscape.org/namespaces/inkscape"
   sodipodi:docname="logo-yn.svg"
   inkscape:version="1.0 (4035a4fb49, 2020-05-01)"
   id="svg3622"
   version="1.1"
   viewBox="0 0 22 22"
   height="22mm"
   width="22mm">
  <defs
     id="defs3616" />
  <sodipodi:namedview
     inkscape:document-rotation="0"
     inkscape:window-maximized="1"
     inkscape:window-y="-9"
     inkscape:window-x="-9"
     inkscape:window-height="1001"
     inkscape:window-width="1920"
     showgrid="false"
     inkscape:current-layer="layer1"
     inkscape:document-units="mm"
     inkscape:cy="96.546803"
     inkscape:cx="42.35714"
     inkscape:zoom="2.7601888"
     inkscape:pageshadow="2"
     inkscape:pageopacity="0.0"
     borderopacity="1.0"
     bordercolor="#666666"
     pagecolor="#ffffff"
     id="base" />
  <metadata
     id="metadata3619">
    <rdf:RDF>
      <cc:Work
         rdf:about="">
        <dc:format>image/svg+xml</dc:format>
        <dc:type
           rdf:resource="http://purl.org/dc/dcmitype/StillImage" />
        <dc:title />
      </cc:Work>
    </rdf:RDF>
  </metadata>
  <g
     transform="translate(0,-275)"
     id="layer1"
     inkscape:groupmode="layer"
     inkscape:label="Layer 1">
    <path
       inkscape:export-ydpi="53.593922"
       inkscape:export-xdpi="53.593922"
       inkscape:connector-curvature="0"
       id="rect1904-1-7-6-5"
       d="m 7.5436136,277.12889 c -0.646855,-0.01 -1.2955581,0.0981 -1.8942654,0.33994 -1.7786504,0.71842 -3.0812731,2.34376 -3.4743226,4.33514 -0.1297873,0.65758 -0.1122382,2.38925 0.031868,3.14504 0.1598332,0.83757 0.5561818,2.09673 0.8594736,2.73035 0.2197177,0.45899 0.2512663,0.49633 0.2747572,0.32522 0.014855,-0.10629 -0.057086,-0.68173 -0.1589695,-1.27877 -0.1619405,-0.94883 -0.1810096,-1.21612 -0.1519741,-2.1224 0.037914,-1.1836 0.208525,-1.89977 0.6581254,-2.76236 0.3390378,-0.65037 1.1961536,-1.51049 1.8121163,-1.81845 0.6109968,-0.30551 1.3520314,-0.45476 1.9838073,-0.39965 1.219636,0.10637 2.2518544,0.6653 3.3274622,1.8016 l 0.567823,0.59972 0.452434,-0.48857 c 0.57253,-0.61847 1.343913,-1.13811 1.972813,-1.32912 0.735602,-0.22346 1.591301,-0.16948 2.216591,0.13986 0.875926,0.43332 1.588582,1.33405 1.814785,2.29347 0.121454,0.51536 0.138061,1.58645 0.03411,2.17547 -0.227119,1.28225 -0.900937,2.58223 -1.851982,3.57246 -0.390951,0.40701 -0.479845,0.46654 -0.696047,0.46566 -0.290208,0 -0.369309,-0.0447 -0.486072,-0.26616 -0.11964,-0.22705 -0.05242,-0.61158 0.321445,-1.83869 0.469723,-1.54138 0.473782,-2.12573 0.01779,-2.56268 -0.174584,-0.16723 -0.277149,-0.20272 -0.655146,-0.2268 -0.823373,-0.0524 -1.381403,0.35405 -1.928016,1.40457 -0.138519,0.26613 -0.234011,0.41639 -0.212437,0.33388 0.09208,-0.35136 0.05855,-1.23331 -0.05493,-1.44871 -0.136817,-0.25965 -0.23256,-0.30217 -0.680424,-0.30217 -0.408673,0 -0.782688,0.17449 -1.201517,0.56064 -0.387281,0.35701 -0.5599908,0.70953 -0.4577188,0.93401 0.1091208,0.23944 0.2157018,0.20573 0.5989238,-0.18902 0.40229,-0.41437 0.693292,-0.56605 0.886954,-0.4624 0.117817,0.0631 0.126851,0.12463 0.08708,0.60096 -0.02392,0.29179 -0.15295,1.21151 -0.285821,2.04395 -0.265473,1.66314 -0.282979,1.89407 -0.15523,2.05511 0.171259,0.21603 0.559161,0.22193 0.720661,0.0117 h -1.9e-4 c 0.04474,-0.0583 0.117498,-0.32874 0.161906,-0.60104 0.258331,-1.58528 0.590261,-2.66041 1.025871,-3.32285 0.438261,-0.66647 1.079701,-0.98016 1.403979,-0.68662 0.216652,0.19605 0.162268,0.68604 -0.193075,1.73845 -0.35321,1.0457 -0.460076,1.8514 -0.307316,2.31435 0.249815,0.75702 1.26109,0.96 2.015451,0.40465 0.371234,-0.27324 1.572129,-1.58753 2.023724,-2.21477 0.89547,-1.24368 1.56269,-2.58839 1.883496,-3.79603 0.149254,-0.56213 0.177607,-0.8188 0.177244,-1.60254 0,-1.4795 -0.328199,-2.44356 -1.088199,-3.20348 -0.659464,-0.6595 -1.460815,-0.94383 -2.660233,-0.94383 -1.505128,0 -2.826604,0.56089 -3.987918,1.69266 l -0.431542,0.42067 -0.257649,-0.44054 c -0.765242,-1.30864 -2.4064281,-2.10583 -4.0595405,-2.13143 z M 6.0337009,281.732 c -0.4307559,0.005 -0.9704509,0.24054 -1.4605818,0.69903 -0.7930858,0.74194 -1.1609086,1.7785 -1.1635167,3.27834 -0.00518,1.91952 0.5592304,3.57311 1.9280422,5.66799 0.8215168,1.25734 1.6125472,2.79401 1.7881245,3.47338 0.1541418,0.59669 0.1182836,0.58733 1.1449572,0.29854 h 1.468e-4 c 2.9223819,-0.82202 6.2221119,-2.82613 8.0241149,-4.87341 0.813105,-0.92382 1.690128,-2.30058 1.552835,-2.43786 -0.01416,-0.0149 -0.279326,0.26764 -0.588343,0.62694 -1.049111,1.21949 -1.913689,1.93037 -3.22215,2.64929 -1.339059,0.73574 -1.919708,0.88213 -3.490852,0.87995 -1.1166825,0 -1.2562202,-0.0163 -1.8175579,-0.18887 -1.1370983,-0.35009 -1.9574492,-0.85595 -2.7835001,-1.71648 -0.8070163,-0.84065 -1.2476263,-1.61123 -1.5753504,-2.75536 -0.4626845,-1.61516 -0.3566473,-3.0642 0.299915,-4.09957 0.2041809,-0.32185 0.7506813,-0.73876 0.9685595,-0.73876 0.3348664,0 0.346465,0.26668 0.069523,1.6132 -0.1140518,0.55448 -0.2067459,1.15718 -0.2058736,1.33924 0.00605,1.28138 1.3895563,1.6824 2.3775736,0.68919 0.1960541,-0.19706 0.425315,-0.49828 0.50939,-0.66936 0.175344,-0.35691 0.1843777,-0.30449 0.073582,0.42343 l -0.080232,0.52685 -0.4904937,0.18921 c -0.9851931,0.37992 -1.6556513,0.86332 -1.901399,1.37092 -0.1912005,0.39496 -0.1944995,0.95774 -0.00691,1.22098 0.3000186,0.4214 1.1437222,0.54269 1.7635713,0.2534 0.6634886,-0.30966 1.088657,-0.96474 1.3176242,-2.03046 l 0.1194582,-0.55618 0.5602751,-0.11684 c 0.3081108,-0.0642 0.6145208,-0.13211 0.6811158,-0.15074 0.16745,-0.0467 0.279214,-0.281 0.229261,-0.48028 -0.05096,-0.20304 -0.270405,-0.2177 -0.8836558,-0.0589 -0.228285,0.0592 -0.4314379,0.0911 -0.4515606,0.0711 -0.020296,-0.0203 0.092228,-0.88503 0.2497466,-1.92207 0.15751,-1.03699 0.286321,-1.9607 0.286243,-2.05271 -1.81e-4,-0.0921 -0.05173,-0.22426 -0.114665,-0.2938 -0.141342,-0.15621 -0.5269992,-0.16643 -0.6755619,-0.0178 -0.1182923,0.11826 -0.1342004,0.1758 -0.2462227,0.89369 -0.1739364,1.1139 -0.5792065,2.16333 -1.0371152,2.68486 -0.281459,0.32058 -0.6415522,0.48503 -0.9394808,0.42916 -0.4426741,-0.083 -0.4688509,-0.37159 -0.1668719,-1.8352 0.2239323,-1.08541 0.2443832,-1.34957 0.1353664,-1.74211 -0.1018659,-0.36699 -0.3972123,-0.54513 -0.7773159,-0.54176 z m 2.2444527,5.39139 -0.049227,0.29524 c -0.082823,0.49768 -0.3198132,1.04422 -0.5551368,1.28026 -0.18753,0.18811 -0.2755518,0.22465 -0.5404118,0.22465 -0.2597818,0 -0.336205,-0.0305 -0.4277073,-0.16995 -0.2950959,-0.4504 0.2410496,-1.10533 1.22113,-1.49167 z"
       style="opacity:1;fill:#000000;fill-opacity:1;stroke:none;stroke-width:0.22441809;stroke-miterlimit:4;stroke-dasharray:none;stroke-dashoffset:0;stroke-opacity:1" />
  </g>
</svg>
